<?xml version="1.0" encoding="UTF-8"?>
<svg id="Layer_1" xmlns="http://www.w3.org/2000/svg" version="1.1" viewBox="0 0 512 512">
  <!-- Generator: Adobe Illustrator 29.3.1, SVG Export Plug-In . SVG Version: 2.1.0 Build 151)  -->
  <defs>
    <style>
      .st0 {
        fill: #c12026;
      }
    </style>
  </defs>
  <path class="st0" d="M493.4,24.6L389.4.6c-11.3-2.6-22.9,3.3-27.5,13.9l-48,112c-4.2,9.8-1.4,21.3,6.9,28l60.6,49.6c-36,76.7-98.9,140.5-177.2,177.2l-49.6-60.6c-6.8-8.3-18.2-11.1-28-6.9l-112,48c-10.7,4.7-16.6,16.3-14,27.6l24,104c2.5,10.8,12.1,18.6,23.4,18.6,256.1,0,464-207.5,464-464s-7.7-20.9-18.6-23.4Z"/>
</svg>