<?xml version="1.0" encoding="UTF-8"?>
<svg id="Layer_1" xmlns="http://www.w3.org/2000/svg" version="1.1" viewBox="0 0 448 512">
  <!-- Generator: Adobe Illustrator 29.3.1, SVG Export Plug-In . SVG Version: 2.1.0 Build 151)  -->
  <defs>
    <style>
      .st0 {
        fill: #c12026;
      }
    </style>
  </defs>
  <path class="st0" d="M448,209.9c-44,.1-87-13.6-122.8-39.2v178.7c0,89.8-72.8,162.5-162.6,162.5C72.8,511.8,0,439,.1,349.3c0-89.8,72.8-162.5,162.6-162.5,7.4,0,14.9.5,22.3,1.5v89.9c-39.3-12.4-81.2,9.5-93.6,48.8s9.5,81.2,48.8,93.6,81.2-9.5,93.6-48.8c2.3-7.2,3.4-14.8,3.4-22.4V0h88c0,7.4.6,14.9,1.9,22.2h0c6.2,33,25.7,62,53.9,80.2,19.9,13.1,43.2,20.1,67,20.1v87.4Z"/>
</svg>