<?xml version="1.0" encoding="UTF-8"?>
<svg id="Layer_1" xmlns="http://www.w3.org/2000/svg" version="1.1" xmlns:xlink="http://www.w3.org/1999/xlink" viewBox="0 0 889.3 339.6">
  <!-- Generator: Adobe Illustrator 29.3.1, SVG Export Plug-In . SVG Version: 2.1.0 Build 151)  -->
  <defs>
    <style>
      .st0 {
        stroke: url(#linear-gradient6);
      }

      .st0, .st1, .st2, .st3, .st4 {
        fill: none;
        stroke-miterlimit: 10;
        stroke-width: 3px;
      }

      .st5 {
        fill: url(#linear-gradient2);
      }

      .st1 {
        stroke: url(#linear-gradient5);
      }

      .st6 {
        fill: url(#linear-gradient1);
      }

      .st2 {
        stroke: url(#linear-gradient9);
      }

      .st3 {
        stroke: url(#linear-gradient8);
      }

      .st7 {
        fill: #c2151c;
      }

      .st4 {
        stroke: url(#linear-gradient7);
      }

      .st8 {
        fill: url(#linear-gradient4);
      }

      .st9 {
        fill: url(#linear-gradient3);
      }

      .st10 {
        fill: url(#linear-gradient);
      }
    </style>
    <linearGradient id="linear-gradient" x1="0" y1="218.3" x2="181" y2="218.3" gradientUnits="userSpaceOnUse">
      <stop offset="0" stop-color="#c2151c"/>
      <stop offset=".5" stop-color="#b21d23"/>
      <stop offset="1" stop-color="#a2272c"/>
    </linearGradient>
    <linearGradient id="linear-gradient1" x1="200.9" y1="182.7" x2="335.9" y2="182.7" xlink:href="#linear-gradient"/>
    <linearGradient id="linear-gradient2" x1="343.9" y1="184.5" x2="395.8" y2="184.5" xlink:href="#linear-gradient"/>
    <linearGradient id="linear-gradient3" x1="425.3" y1="182.7" x2="691.4" y2="182.7" xlink:href="#linear-gradient"/>
    <linearGradient id="linear-gradient4" x1="709.6" y1="184.5" x2="889.3" y2="184.5" xlink:href="#linear-gradient"/>
    <linearGradient id="linear-gradient5" x1="423.8" y1="312.4" x2="503.9" y2="312.4" xlink:href="#linear-gradient"/>
    <linearGradient id="linear-gradient6" x1="504.3" y1="313" x2="558.5" y2="313" xlink:href="#linear-gradient"/>
    <linearGradient id="linear-gradient7" x1="559" y1="303.8" x2="614.9" y2="303.8" xlink:href="#linear-gradient"/>
    <linearGradient id="linear-gradient8" x1="614.8" y1="302.7" x2="636.9" y2="302.7" xlink:href="#linear-gradient"/>
    <linearGradient id="linear-gradient9" x1="636.5" y1="313" x2="692.4" y2="313" xlink:href="#linear-gradient"/>
  </defs>
  <g id="Logo_rood">
    <g>
      <path class="st10" d="M143.3,110.2c11.9,7.2,21.2,17.2,27.8,30.1,6.6,12.9,9.9,27.6,9.9,44.2s-3.3,31.3-9.9,44.2c-6.6,12.9-15.9,23-27.8,30.1-11.9,7.2-25.5,10.8-40.7,10.8s-37.2-6.4-50.6-19.2v86.7H0V102.8h45l3.3,19.2c13.7-15,31.8-22.5,54.3-22.5s28.8,3.6,40.7,10.8ZM118.5,214.5c7.3-7.6,10.9-17.6,10.9-30s-3.6-22.3-10.9-30c-7.3-7.6-16.7-11.4-28.1-11.4s-20.8,3.9-28,11.6c-7.2,7.7-10.8,17.7-10.8,29.8s3.6,22.1,10.8,29.8c7.2,7.7,16.5,11.6,28,11.6s20.9-3.8,28.1-11.4Z"/>
      <path class="st6" d="M316.4,103.3c7.5,2.8,14,6.8,19.5,12.1l-21.8,38.1c-4.6-2.9-8.9-5-12.9-6.3-4-1.3-8.2-2-12.6-2-11,0-19.8,3.5-26.1,10.6-6.4,7.1-9.6,17.4-9.6,31.1v79.4h-52V102.8h45.3l4,20.5c10.6-16.1,25.2-24.2,43.7-24.2s15,1.4,22.5,4.1Z"/>
      <path class="st5" d="M343.9,102.8v163.5h52V102.8h-52Z"/>
      <path class="st9" d="M673.5,117.3c11.9,12.1,17.9,28.8,17.9,50v99h-52v-92.3c0-9.7-2.3-17.3-6.8-22.7-4.5-5.4-10.9-8.1-19-8.1s-16.2,3.1-21.5,9.3c-5.3,6.2-7.9,14.3-7.9,24.5v89.4h-51.6v-92.3c0-9.7-2.2-17.3-6.6-22.7-4.4-5.4-10.7-8.1-18.9-8.1s-16.3,3.1-21.7,9.3c-5.4,6.2-8.1,14.3-8.1,24.5v89.4h-52V102.8h45l3,18.2c5.7-7.1,12.6-12.5,20.7-16.2,8.1-3.7,16.7-5.6,26-5.6s20.1,2.3,28.5,6.8c8.4,4.5,15,10.8,19.9,18.7,13.2-17,32-25.5,56.3-25.5s37.1,6.1,49,18.2Z"/>
      <path class="st8" d="M751.8,259.2c-13.6-7.2-24-17.2-31.3-30-7.3-12.8-10.9-27.7-10.9-44.7s3.6-31.9,10.9-44.7c7.3-12.8,17.7-22.8,31.3-30,13.6-7.2,29.4-10.8,47.5-10.8s34,3.6,47.7,10.8c13.7,7.2,24.2,17.2,31.4,30,7.3,12.8,10.9,27.7,10.9,44.7s-3.6,31.9-10.9,44.7c-7.3,12.8-17.8,22.8-31.4,30-13.7,7.2-29.6,10.8-47.7,10.8s-33.9-3.6-47.5-10.8ZM827.1,214.3c7.1-7.7,10.6-17.7,10.6-29.8s-3.5-22.1-10.6-29.8c-7.1-7.7-16.3-11.6-27.8-11.6s-20.4,3.9-27.5,11.6c-7.1,7.7-10.6,17.7-10.6,29.8s3.5,22.1,10.6,29.8c7.1,7.7,16.2,11.6,27.5,11.6s20.7-3.9,27.8-11.6Z"/>
    </g>
    <g>
      <path class="st1" d="M502.4,337h-16.5v-27c0-2.5-.6-4.5-1.7-5.8-1.1-1.3-2.6-2-4.7-2s-4.1.8-5.4,2.3c-1.3,1.6-2,3.7-2,6.3v26.2h-16.4v-27c0-2.5-.6-4.5-1.7-5.8-1.1-1.3-2.6-2-4.6-2s-4.1.8-5.5,2.3c-1.4,1.6-2.1,3.7-2.1,6.3v26.2h-16.5v-48.1h14.4l.7,4.1c1.4-1.4,3.1-2.6,4.9-3.4,2.4-1.1,5-1.7,7.7-1.7s6,.7,8.5,2c2.1,1.1,3.9,2.7,5.3,4.6,3.9-4.4,9.2-6.6,15.8-6.6s11,1.8,14.5,5.4h0c3.5,3.6,5.3,8.6,5.3,14.8v28.9ZM487.7,335.2h12.9v-27.1c0-5.7-1.6-10.3-4.8-13.5-3.2-3.2-7.6-4.9-13.2-4.9s-11.6,2.2-15.2,6.9l-.8,1-.7-1.1c-1.3-2.1-3.1-3.8-5.3-5-2.2-1.2-4.8-1.8-7.6-1.8s-4.8.5-7,1.5c-2.1,1-4,2.5-5.5,4.3l-1.3,1.6-1-6.4h-11.1v44.5h12.9v-24.4c0-3.1.8-5.6,2.5-7.5,1.7-1.9,4-2.9,6.8-2.9s4.6.9,6,2.6c1.4,1.7,2.1,4,2.1,7v25.2h12.8v-24.4c0-3.1.8-5.6,2.5-7.5,1.7-1.9,4-2.9,6.8-2.9s4.6.9,6.1,2.6c1.4,1.7,2.1,4,2.1,7v25.2Z"/>
      <path class="st0" d="M532.9,338.1c-5.5,0-10.3-1-14.4-3-4.1-2-7.3-5-9.5-8.7-2.2-3.7-3.3-8.2-3.3-13.3s1.1-9.3,3.3-13.1c2.2-3.8,5.2-6.8,9.1-8.9,3.9-2.1,8.4-3.2,13.4-3.2s9.7,1,13.5,3h0c3.8,2,6.8,4.8,8.8,8.4,2,3.6,3.1,7.8,3.1,12.6s-.2,3.4-.5,5.7v.8h-33.7c.5,1.7,1.6,3,3.2,4.1,2,1.4,4.5,2,7.6,2s4.4-.3,6.5-1c2.1-.7,3.9-1.6,5.3-2.7l.7-.5,8.9,9.5-.7.6c-2.7,2.5-5.9,4.5-9.6,5.8-3.7,1.3-7.6,2-11.8,2ZM531.6,289.7c-4.8,0-9,1-12.6,2.9-3.6,1.9-6.4,4.7-8.4,8.2-2,3.5-3,7.6-3,12.2s1,8.9,3.1,12.4c2,3.5,5,6.2,8.7,8,3.8,1.9,8.3,2.9,13.5,2.9s7.7-.6,11.2-1.9c3.2-1.2,6-2.8,8.3-4.8l-6.5-7c-1.5,1.1-3.3,1.9-5.2,2.6-2.3.7-4.6,1.1-7,1.1-3.5,0-6.4-.8-8.7-2.4-2.3-1.6-3.7-3.7-4.2-6.3l-.2-1.1h34.3c.2-1.8.4-3.3.4-4.6,0-4.4-1-8.4-2.8-11.7-1.9-3.3-4.6-5.9-8.1-7.7h0c-3.5-1.8-7.8-2.8-12.7-2.8ZM543.1,309.8h-22.4v-1c.4-2.9,1.5-5.2,3.6-6.9,2-1.6,4.6-2.5,7.7-2.5s5.8.8,7.7,2.5c2,1.7,3.1,4,3.3,6.9v1ZM522.8,308h18.4c-.3-2-1.1-3.5-2.5-4.7-1.6-1.3-3.8-2-6.6-2s-4.9.7-6.6,2c-1.4,1.2-2.3,2.7-2.7,4.7Z"/>
      <path class="st4" d="M583.5,337.9c-4.5,0-8.5-1.1-11.9-3.2-3.5-2.1-6.2-5.1-8.2-8.9-1.9-3.8-2.9-8.1-2.9-12.9s1-9.1,2.9-12.9c1.9-3.8,4.7-6.8,8.2-8.9,3.5-2.1,7.5-3.2,11.9-3.2s9.7,1.4,13.4,4.3v-22.7h16.5v67.3h-14.4l-.8-4.5c-3.9,3.6-8.9,5.5-14.8,5.5ZM583.5,289.8c-4.1,0-7.8,1-11,2.9-3.2,1.9-5.7,4.7-7.5,8.2-1.8,3.5-2.7,7.6-2.7,12.1s.9,8.6,2.7,12.1c1.8,3.5,4.3,6.2,7.5,8.2,3.2,1.9,6.9,2.9,11,2.9,6,0,11-2.1,14.7-6.2l1.2-1.4,1.1,6.6h11.1v-63.7h-12.9v24.8l-1.5-1.4c-3.7-3.4-8.3-5.1-13.7-5.1ZM587,325.6c-3.5,0-6.4-1.2-8.6-3.6-2.2-2.3-3.3-5.4-3.3-9s1.1-6.7,3.3-9c2.2-2.4,5.1-3.6,8.6-3.6s6.4,1.2,8.6,3.5c2.2,2.3,3.3,5.4,3.3,9.1s-1.1,6.8-3.3,9.1c-2.2,2.3-5.1,3.5-8.6,3.5ZM587,302.1c-3,0-5.4,1-7.3,3-1.9,2-2.8,4.6-2.8,7.8s.9,5.8,2.8,7.8c1.9,2,4.2,3,7.3,3s5.4-1,7.3-3h0c1.9-2,2.8-4.6,2.8-7.8s-1-5.9-2.8-7.8c-1.9-2-4.3-3-7.3-3Z"/>
      <path class="st3" d="M634.1,337h-16.5v-48.1h16.5v48.1ZM619.4,335.2h12.9v-44.5h-12.9v44.5ZM625.9,286.1c-2.8,0-5.1-.8-6.8-2.5h0c-1.8-1.7-2.7-3.8-2.7-6.4s.9-4.8,2.7-6.5c1.8-1.6,4.1-2.5,6.8-2.5s5,.8,6.8,2.5c1.8,1.7,2.7,3.8,2.7,6.5s-.9,4.7-2.7,6.4c-1.8,1.7-4.1,2.5-6.8,2.5ZM625.9,270.1c-2.3,0-4.1.7-5.6,2-1.4,1.3-2.1,3-2.1,5.1s.7,3.7,2.1,5.1h0c1.4,1.3,3.3,2,5.6,2s4.2-.7,5.6-2c1.4-1.3,2.1-3,2.1-5.1s-.7-3.8-2.1-5.1c-1.5-1.4-3.3-2-5.6-2Z"/>
      <path class="st2" d="M661,337.9c-4.5,0-8.5-1.1-11.9-3.2s-6.2-5.1-8.2-8.9c-1.9-3.8-2.9-8.1-2.9-12.9s1-9.1,2.9-12.9c1.9-3.8,4.7-6.8,8.2-8.9,3.5-2.1,7.5-3.2,11.9-3.2s6.2.6,9,1.7c2.2.9,4.1,2.1,5.8,3.7l.8-4.5h14.4v48.1h-14.4l-.8-4.5c-3.9,3.6-8.9,5.5-14.8,5.5ZM661,289.8c-4.1,0-7.8,1-11,2.9-3.2,1.9-5.7,4.7-7.5,8.2-1.8,3.5-2.7,7.6-2.7,12.1s.9,8.6,2.7,12.1c1.8,3.5,4.3,6.2,7.5,8.2,3.2,1.9,6.9,2.9,11,2.9,6,0,11-2.1,14.7-6.2l1.2-1.4,1.1,6.6h11.1v-44.5h-11.1l-1.1,6.5-1.2-1.4c-1.8-2-3.9-3.5-6.4-4.5-2.5-1-5.3-1.6-8.3-1.6ZM664.4,325.6c-3.5,0-6.4-1.2-8.6-3.6-2.2-2.3-3.3-5.4-3.3-9s1.1-6.7,3.3-9c2.2-2.4,5.1-3.6,8.6-3.6s6.4,1.2,8.6,3.5c2.2,2.3,3.3,5.4,3.3,9.1s-1.1,6.8-3.3,9.1h0c-2.2,2.3-5.1,3.5-8.6,3.5ZM664.4,302.1c-3,0-5.4,1-7.3,3-1.9,2-2.8,4.6-2.8,7.8s.9,5.8,2.8,7.8c1.9,2,4.2,3,7.3,3s5.4-1,7.3-3h0c1.9-2,2.8-4.6,2.8-7.8s-1-5.9-2.8-7.8c-1.9-2-4.3-3-7.3-3Z"/>
    </g>
    <path class="st7" d="M369.6,95.8c-5.1,0-10.2,0-15.3,0-6.6,0-10.7-3.6-10.5-9.8.3-6.6-2.2-12-7-16.7-6.4-6.5-10-14.3-11-23.1-2.4-19.5,10.3-37.8,29.7-44,25.4-8.1,52.9,7.4,57.1,32.5,2.3,13.4-1.6,25.2-11.2,35.2-3.9,4.1-6.2,8.8-5.9,14.4,0,1.2,0,2.4,0,3.5-.8,4.8-4.5,7.7-9.6,7.9,0,0-.2,0-.3,0-5.3,0-10.6,0-15.9,0ZM369.6,87.1c4.9,0,9.8,0,14.7,0,2.1,0,2.2,0,2.1-2.1-.2-8.1,2.7-15,8.4-20.9,7.7-7.8,10.6-17.1,9-27.6-2.6-18-21.3-30.7-40.2-27.5-17.1,2.8-29.1,17.1-29,32.4,0,8.5,2.8,16,8.9,22.1,6.2,6.3,9.7,13.5,9.4,22.1,0,1.2.4,1.6,1.7,1.6,5,0,10,0,15,0Z"/>
    <path class="st7" d="M359,26.9c0,1.6-.9,2.7-2.7,3.3-2.9.9-5.2,2.7-6.8,5.3-.6.9-.9,2-1.3,3-.6,1.9-2.3,2.9-4,2.4-1.9-.5-2.8-2.2-2.3-4.2,1.8-6.6,6-10.9,12.6-12.9,2.5-.8,4.5.7,4.5,3.1Z"/>
  </g>
</svg>